<?xml version="1.0" encoding="UTF-8" standalone="no"?>
<!-- Created with Inkscape (http://www.inkscape.org/) -->

<svg
   xmlns:dc="http://purl.org/dc/elements/1.1/"
   xmlns:cc="http://creativecommons.org/ns#"
   xmlns:rdf="http://www.w3.org/1999/02/22-rdf-syntax-ns#"
   xmlns:svg="http://www.w3.org/2000/svg"
   xmlns="http://www.w3.org/2000/svg"
   xmlns:sodipodi="http://sodipodi.sourceforge.net/DTD/sodipodi-0.dtd"
   xmlns:inkscape="http://www.inkscape.org/namespaces/inkscape"
   width="50"
   height="55"
   id="svg3783"
   version="1.1"
   inkscape:version="0.48.3.1 r9886"
   sodipodi:docname="bug.svg"
   inkscape:export-filename="/home/kdvolder/commandline-dev/open-sts/eclipse-integration-commons/org.springsource.ide.eclipse.commons.gettingstarted/resources/welcome/bug.png"
   inkscape:export-xdpi="90"
   inkscape:export-ydpi="90">
  <defs
     id="defs3785">
    <inkscape:perspective
       sodipodi:type="inkscape:persp3d"
       inkscape:vp_x="0 : 27.5 : 1"
       inkscape:vp_y="0 : 1000 : 0"
       inkscape:vp_z="50 : 27.5 : 1"
       inkscape:persp3d-origin="25 : 18.333333 : 1"
       id="perspective4349" />
  </defs>
  <sodipodi:namedview
     id="base"
     pagecolor="#ffffff"
     bordercolor="#666666"
     borderopacity="1.0"
     inkscape:pageopacity="0.0"
     inkscape:pageshadow="2"
     inkscape:zoom="13.927273"
     inkscape:cx="25"
     inkscape:cy="27.5"
     inkscape:current-layer="layer1"
     showgrid="true"
     inkscape:grid-bbox="true"
     inkscape:document-units="px"
     inkscape:window-width="1468"
     inkscape:window-height="939"
     inkscape:window-x="117"
     inkscape:window-y="128"
     inkscape:window-maximized="0"
     inkscape:showpageshadow="false" />
  <metadata
     id="metadata3788">
    <rdf:RDF>
      <cc:Work
         rdf:about="">
        <dc:format>image/svg+xml</dc:format>
        <dc:type
           rdf:resource="http://purl.org/dc/dcmitype/StillImage" />
        <dc:title></dc:title>
      </cc:Work>
    </rdf:RDF>
  </metadata>
  <g
     inkscape:groupmode="layer"
     id="layer3"
     inkscape:label="background"
     style="display:inline"
     transform="translate(0,-201)">
    <rect
       style="fill:#268f22;fill-opacity:1;stroke:none"
       id="rect4328"
       width="50"
       height="55"
       x="0"
       y="201" />
  </g>
  <g
     id="layer1"
     inkscape:label="Layer 1"
     inkscape:groupmode="layer"
     transform="translate(0,23)"
     style="display:inline"
     sodipodi:insensitive="true">
    <path
       style="fill:#ffffff;fill-opacity:1"
       d="M 3.955727,26.868434 C 3.5519368,26.672839 3.1487243,26.193049 2.9781309,25.705178 2.5594181,24.507719 3.1897013,20.620021 4.1390223,18.544577 c 1.2787851,-2.795725 3.8833982,-5.247538 6.8660937,-6.463284 0.445871,-0.181736 0.671137,-0.325462 0.641648,-0.409389 -0.131091,-0.373115 -0.478787,-1.7150449 -0.57197,-2.2075329 l -0.106776,-0.564306 -4.3644555,-0.0513 C 2.7852485,8.8038861 2.2038164,8.7763081 1.9570657,8.6284151 1.4531888,8.3264071 1.1360895,7.7859951 1.021796,7.0344923 0.91367508,6.3235687 1.3442367,5.4889595 2.0304671,5.0792666 2.3038872,4.9160291 2.7291507,4.8956653 6.442963,4.8679645 l 4.109915,-0.030657 5.65e-4,-0.944057 c 1.88e-4,-0.5192318 0.02633,-1.3134211 0.05783,-1.7648659 L 10.668544,1.307574 10.057337,0.82027287 C 8.7040615,-0.25866853 7.2326199,-2.2814929 6.3815718,-4.2328939 5.3560484,-6.5843443 4.7285437,-9.7686903 4.7285437,-12.621373 c 0,-1.504491 0.1872354,-2.010757 0.8922163,-2.412464 0.7905839,-0.450476 1.5557263,-0.329063 2.1737614,0.344945 0.4556321,0.496893 0.5977155,1.040395 0.5977155,2.286396 0,0.934135 0.2022391,2.6079157 0.4619145,3.8229187 0.495497,2.318407 1.6818866,4.6069882 3.0445976,5.8731314 0.823134,0.7648006 4.601241,2.47728537 6.826989,3.09443507 4.751926,1.31760733 10.238105,1.05814693 14.983566,-0.7086284 3.614349,-1.34564897 4.97614,-2.41811447 6.305445,-4.96578507 0.996856,-1.910517 1.461029,-3.928641 1.626967,-7.0737367 0.07769,-1.472553 0.09744,-1.585141 0.349278,-1.991359 0.371769,-0.599673 0.692783,-0.828989 1.241031,-0.886524 0.942853,-0.09895 1.521029,0.209283 1.895212,1.010356 0.151736,0.324855 0.183761,0.604964 0.183761,1.607324 0,2.8516517 -0.627651,6.0363577 -1.653028,8.3874701 -0.851572,1.9526022 -2.323985,3.97627367 -3.676654,5.05316697 l -0.612088,0.48730113 0.05833,1.2825152 c 0.03208,0.7053822 0.05851,1.5018237 0.05871,1.7698691 l 3.89e-4,0.4873563 3.922032,6.085e-4 c 2.446942,3.145e-4 4.055487,0.041053 4.276876,0.1081973 0.413076,0.1252874 0.955702,0.6132581 1.158691,1.041985 0.078,0.1647169 0.149808,0.5387703 0.159598,0.8312303 0.0229,0.6840084 -0.24021,1.2487592 -0.773528,1.6603552 l -0.398833,0.307804 -4.379996,0.0513 -4.379999,0.0513 -0.106765,0.564306 c -0.09317,0.492477 -0.440854,1.8343779 -0.571958,2.2075329 -0.02949,0.08393 0.195776,0.227653 0.641645,0.40939 2.982692,1.215746 5.587304,3.667558 6.866089,6.463283 0.689909,1.50831 1.177407,3.68823 1.262277,5.644485 0.04813,1.109288 0.03422,1.273555 -0.139028,1.641619 -0.232475,0.493896 -0.618248,0.893993 -1.03507,1.073504 -0.458497,0.197459 -1.27501,0.07696 -1.661787,-0.245249 -0.575698,-0.479586 -0.70659,-0.841358 -0.808708,-2.235201 -0.204176,-2.786788 -0.825765,-4.471419 -2.239028,-6.068241 -0.764309,-0.863619 -1.869159,-1.727169 -2.778887,-2.172013 -0.5734,-0.280386 -1.525712,-0.665682 -1.645319,-0.665682 -0.03624,0 -0.221823,0.275933 -0.412416,0.613185 -2.036765,3.604031 -5.335152,6.58831 -8.717485,7.887322 l -0.817495,0.313963 -0.03537,-8.536934 c -0.03806,-9.1885837 -0.02736,-8.9893611 -0.548377,-10.1963313 -0.719947,-1.6677808 -1.888157,-1.6677808 -2.608103,0 -0.521013,1.2069705 -0.510301,1.0077479 -0.54837,10.1963293 l -0.03537,8.536934 -0.817493,-0.313965 c -3.382346,-1.298996 -6.680735,-4.283277 -8.717499,-7.887306 -0.190593,-0.337253 -0.376179,-0.613186 -0.412416,-0.613186 -0.120167,0 -1.073263,0.385936 -1.638284,0.663391 -1.249131,0.613385 -2.8545662,2.018503 -3.537303,3.095939 -0.825673,1.303006 -1.3614795,3.103135 -1.4584242,4.899823 -0.030762,0.570161 -0.092939,1.198257 -0.1381642,1.395764 -0.1099225,0.480047 -0.5911836,1.098786 -0.9996232,1.285175 -0.3927798,0.179243 -1.0982039,0.184328 -1.4570522,0.01054 z m 18.19885,-28.5975422 c -4.54858,-0.4059589 -6.870187,-1.9200806 -7.614699,-4.9662051 -0.23569,-0.964306 -0.286651,-3.234343 -0.09099,-4.0527427 0.339058,-1.418157 1.248765,-2.816465 2.432544,-3.73907 0.554984,-0.432535 1.842353,-1.163945 2.653741,-1.507698 0.357311,-0.151385 0.391682,-0.200051 0.452108,-0.640145 0.10673,-0.777333 0.725883,-1.996587 1.372561,-2.702879 2.024728,-2.21139 5.29009,-2.216878 7.308587,-0.01231 0.639245,0.698181 1.176739,1.728415 1.358978,2.604815 l 0.122844,0.590759 0.979338,0.456465 c 2.248369,1.047945 3.70708,2.541881 4.33241,4.437044 0.195817,0.593455 0.219686,0.842068 0.216706,2.2572227 -0.0024,1.173177 -0.04599,1.765254 -0.165973,2.257232 -0.654673,2.6847411 -2.416737,4.1345418 -5.795923,4.768807 -1.813042,0.3403043 -5.264141,0.453798 -7.562239,0.248693 z"
       id="path3817"
       inkscape:connector-curvature="0" />
  </g>
</svg>
